<?xml version="1.0" encoding="utf-8"?>
<!-- Generator: Adobe Illustrator 18.0.0, SVG Export Plug-In . SVG Version: 6.00 Build 0)  -->
<!DOCTYPE svg PUBLIC "-//W3C//DTD SVG 1.0//EN" "http://www.w3.org/TR/2001/REC-SVG-20010904/DTD/svg10.dtd">
<svg version="1.0" id="Layer_1" xmlns="http://www.w3.org/2000/svg" xmlns:xlink="http://www.w3.org/1999/xlink" x="0px" y="0px"
	 viewBox="0 0 383.2 652.5" style="enable-background:new 0 0 383.2 652.5;" xml:space="preserve">
<style type="text/css">
	.st0{fill-rule:evenodd;clip-rule:evenodd;}
	.st1{fill-rule:evenodd;clip-rule:evenodd;fill:#FFFFFF;}
	.st2{fill:none;}
</style>
<g>
	<path class="st0" d="M207.5,60.9c-6.4,0-11.6,5.2-11.6,11.6c0,6.4,5.2,11.6,11.6,11.6c6.4,0,11.6-5.2,11.6-11.6
		C219.1,66.1,213.9,60.9,207.5,60.9z M251.7,62.7c-4.1,0-7.5,3.4-7.5,7.5v16c0,4.1,3.4,7.5,7.5,7.5s7.5-3.4,7.5-7.5v-16
		C259.2,66.1,255.8,62.7,251.7,62.7z M269.1,62.7c-4.1,0-7.5,3.4-7.5,7.5v16c0,4.1,3.4,7.5,7.5,7.5c4.1,0,7.5-3.4,7.5-7.5v-16
		C276.6,66.1,273.3,62.7,269.1,62.7z M207.5,60.9c-6.4,0-11.6,5.2-11.6,11.6c0,6.4,5.2,11.6,11.6,11.6c6.4,0,11.6-5.2,11.6-11.6
		C219.1,66.1,213.9,60.9,207.5,60.9z M269.1,62.7c-4.1,0-7.5,3.4-7.5,7.5v16c0,4.1,3.4,7.5,7.5,7.5c4.1,0,7.5-3.4,7.5-7.5v-16
		C276.6,66.1,273.3,62.7,269.1,62.7z M251.7,62.7c-4.1,0-7.5,3.4-7.5,7.5v16c0,4.1,3.4,7.5,7.5,7.5s7.5-3.4,7.5-7.5v-16
		C259.2,66.1,255.8,62.7,251.7,62.7z M31.2,46.1V567h18.3c3,0,5.4,2.4,5.4,5.4v28.4c0,0.2,0,0.3,0,0.5h-0.2v5.1H144v-31.1
		c0-0.2,0-0.4,0-0.6l0,0c0-0.1,0-0.1,0-0.2l0-0.1l0-0.1l0-0.1c0.7-4.2,4.3-7.4,8.7-7.4c3.7,0,6.8,2.3,8.1,5.5v0l0.1,0.1l0,0.1l0,0.1
		l0,0.1l0,0.1l0,0.1l0,0.1l0,0l0,0.2l0,0l0,0.2l0,0c0,0.1,0,0.1,0,0.2v0c0.1,0.6,0.2,1.1,0.2,1.7c0,0.1,0,0.1,0,0.2v30.9h169.3v-4h0
		v-1.3c0-0.1,0-0.1,0-0.2v-28.4c0-3,2.4-5.4,5.4-5.4h15.7v-2.7h0V46.1H31.2z M241.5,61.7c0-1.4,1.2-2.6,2.6-2.6h32.6
		c1.4,0,2.6,1.2,2.6,2.6v32.9c0,1.4-1.2,2.6-2.6,2.6h-32.6c-1.4,0-2.6-1.2-2.6-2.6V61.7z M185.4,59.1h44.2v26.8h-44.2V59.1z
		 M45.3,72.7C45.3,63,53.2,55,63,55c9.8,0,17.7,7.9,17.7,17.7c0,9.8-7.9,17.7-17.7,17.7C53.2,90.4,45.3,82.5,45.3,72.7z M73.2,601.3
		h-7.6v-27h7.6V601.3z M83.4,601.3h-7.6v-27h7.6V601.3z M93.5,601.3h-7.6v-27h7.6V601.3z M103.6,601.3h-7.6v-27h7.6V601.3z
		 M113.7,601.3h-7.6v-27h7.6V601.3z M123.8,601.3h-7.6v-27h7.6V601.3z M133.9,601.3h-7.6v-27h7.6V601.3z M179.7,601.3h-7.6v-27h7.6
		V601.3z M189.8,601.3h-7.6v-27h7.6V601.3z M199.9,601.3h-7.6v-27h7.6V601.3z M210.1,601.3h-7.6v-27h7.6V601.3z M220.2,601.3h-7.6
		v-27h7.6V601.3z M230.3,601.3h-7.6v-27h7.6V601.3z M240.4,601.3h-7.6v-27h7.6V601.3z M250.5,601.3h-7.6v-27h7.6V601.3z
		 M260.3,601.3h-7.6v-27h7.6V601.3z M270.4,601.3h-7.6v-27h7.6V601.3z M280.5,601.3h-7.6v-27h7.6V601.3z M290.6,601.3H283v-27h7.6
		V601.3z M300.7,601.3h-7.6v-27h7.6V601.3z M310.8,601.3h-7.6v-27h7.6V601.3z M320.9,601.3h-7.6v-27h7.6V601.3z M333.3,528.1
		c0,7.1-5.6,13-12.5,13H62.4c-6.9,0-12.5-5.9-12.5-13v-401c0-7.2,5.6-13,12.5-13h258.4c6.9,0,12.5,5.8,12.5,13V528.1z M324,90.4
		c-9.8,0-17.7-7.9-17.7-17.7c0-9.8,7.9-17.7,17.7-17.7c9.8,0,17.7,7.9,17.7,17.7C341.7,82.5,333.7,90.4,324,90.4z M269.1,93.7
		c4.1,0,7.5-3.4,7.5-7.5v-16c0-4.1-3.4-7.5-7.5-7.5c-4.1,0-7.5,3.4-7.5,7.5v16C261.7,90.3,265,93.7,269.1,93.7z M251.7,93.7
		c4.1,0,7.5-3.4,7.5-7.5v-16c0-4.1-3.4-7.5-7.5-7.5s-7.5,3.4-7.5,7.5v16C244.2,90.3,247.6,93.7,251.7,93.7z M207.5,60.9
		c-6.4,0-11.6,5.2-11.6,11.6c0,6.4,5.2,11.6,11.6,11.6c6.4,0,11.6-5.2,11.6-11.6C219.1,66.1,213.9,60.9,207.5,60.9z M207.5,60.9
		c-6.4,0-11.6,5.2-11.6,11.6c0,6.4,5.2,11.6,11.6,11.6c6.4,0,11.6-5.2,11.6-11.6C219.1,66.1,213.9,60.9,207.5,60.9z M207.5,60.9
		c-6.4,0-11.6,5.2-11.6,11.6c0,6.4,5.2,11.6,11.6,11.6c6.4,0,11.6-5.2,11.6-11.6C219.1,66.1,213.9,60.9,207.5,60.9z"/>
	<path class="st1" d="M259.2,70.2v16c0,4.1-3.4,7.5-7.5,7.5s-7.5-3.4-7.5-7.5v-16c0-4.1,3.4-7.5,7.5-7.5S259.2,66.1,259.2,70.2z"/>
	<path class="st1" d="M276.6,70.2v16c0,4.1-3.4,7.5-7.5,7.5c-4.1,0-7.5-3.4-7.5-7.5v-16c0-4.1,3.4-7.5,7.5-7.5
		C273.3,62.7,276.6,66.1,276.6,70.2z"/>
	<path class="st0" d="M251.7,62.7c-4.1,0-7.5,3.4-7.5,7.5v16c0,4.1,3.4,7.5,7.5,7.5s7.5-3.4,7.5-7.5v-16
		C259.2,66.1,255.8,62.7,251.7,62.7z M269.1,62.7c-4.1,0-7.5,3.4-7.5,7.5v16c0,4.1,3.4,7.5,7.5,7.5c4.1,0,7.5-3.4,7.5-7.5v-16
		C276.6,66.1,273.3,62.7,269.1,62.7z"/>
	<path class="st1" d="M219.1,72.5c0,6.4-5.2,11.6-11.6,11.6c-6.4,0-11.6-5.2-11.6-11.6c0-6.4,5.2-11.6,11.6-11.6
		C213.9,60.9,219.1,66.1,219.1,72.5z"/>
	<path class="st0" d="M219.1,72.5c0,6.4-5.2,11.6-11.6,11.6c-6.4,0-11.6-5.2-11.6-11.6c0-6.4,5.2-11.6,11.6-11.6
		C213.9,60.9,219.1,66.1,219.1,72.5z"/>
	<path class="st2" d="M219.1,72.5c0,6.4-5.2,11.6-11.6,11.6c-6.4,0-11.6-5.2-11.6-11.6c0-6.4,5.2-11.6,11.6-11.6
		C213.9,60.9,219.1,66.1,219.1,72.5z"/>
	<path class="st2" d="M251.7,62.7c-4.1,0-7.5,3.4-7.5,7.5v16c0,4.1,3.4,7.5,7.5,7.5s7.5-3.4,7.5-7.5v-16
		C259.2,66.1,255.8,62.7,251.7,62.7z M269.1,62.7c-4.1,0-7.5,3.4-7.5,7.5v16c0,4.1,3.4,7.5,7.5,7.5c4.1,0,7.5-3.4,7.5-7.5v-16
		C276.6,66.1,273.3,62.7,269.1,62.7z M269.1,62.7c-4.1,0-7.5,3.4-7.5,7.5v16c0,4.1,3.4,7.5,7.5,7.5c4.1,0,7.5-3.4,7.5-7.5v-16
		C276.6,66.1,273.3,62.7,269.1,62.7z M251.7,62.7c-4.1,0-7.5,3.4-7.5,7.5v16c0,4.1,3.4,7.5,7.5,7.5s7.5-3.4,7.5-7.5v-16
		C259.2,66.1,255.8,62.7,251.7,62.7z M269.1,93.7c4.1,0,7.5-3.4,7.5-7.5v-16c0-4.1-3.4-7.5-7.5-7.5c-4.1,0-7.5,3.4-7.5,7.5v16
		C261.7,90.3,265,93.7,269.1,93.7z M251.7,93.7c4.1,0,7.5-3.4,7.5-7.5v-16c0-4.1-3.4-7.5-7.5-7.5s-7.5,3.4-7.5,7.5v16
		C244.2,90.3,247.6,93.7,251.7,93.7z"/>
</g>
</svg>
